<svg width="100" height="100" viewBox="0 0 100 100" fill="none" xmlns="http://www.w3.org/2000/svg">
<circle cx="50" cy="50" r="50" fill="#19C3E9"/>
<path d="M81.1908 71.2987L65.8304 55.9383C68.0232 52.3584 69.3526 48.1869 69.3526 43.6763C69.3526 30.6031 58.7476 20 45.6763 20C32.6031 20 22 30.6031 22 43.6763C22 56.7476 32.6031 67.3526 45.6763 67.3526C50.1869 67.3526 54.3584 66.0232 57.9383 63.8382L73.2987 79.1908C74.3777 80.2698 76.1657 80.262 77.2447 79.1908L81.1908 75.2447C82.2698 74.1657 82.2698 72.3777 81.1908 71.2987ZM45.6763 59.4605C36.9595 59.4605 29.8921 52.3931 29.8921 43.6763C29.8921 34.9595 36.9595 27.8921 45.6763 27.8921C54.3931 27.8921 61.4605 34.9595 61.4605 43.6763C61.4605 52.3931 54.3931 59.4605 45.6763 59.4605Z" fill="white"/>
</svg>
