<svg width="50" height="50" viewBox="0 0 50 50" fill="none" xmlns="http://www.w3.org/2000/svg">
<circle cx="25" cy="25" r="25" fill="#5FD517"/>
<path d="M40.5954 35.6493L32.9152 27.9692C34.0116 26.1792 34.6763 24.0934 34.6763 21.8382C34.6763 15.3015 29.3738 10 22.8382 10C16.3015 10 11 15.3015 11 21.8382C11 28.3738 16.3015 33.6763 22.8382 33.6763C25.0934 33.6763 27.1792 33.0116 28.9692 31.9191L36.6493 39.5954C37.1888 40.1349 38.0829 40.131 38.6224 39.5954L40.5954 37.6224C41.1349 37.0829 41.1349 36.1888 40.5954 35.6493ZM22.8382 29.7303C18.4798 29.7303 14.9461 26.1965 14.9461 21.8382C14.9461 17.4798 18.4798 13.9461 22.8382 13.9461C27.1965 13.9461 30.7303 17.4798 30.7303 21.8382C30.7303 26.1965 27.1965 29.7303 22.8382 29.7303Z" fill="white"/>
</svg>
