<svg width="50" height="50" viewBox="0 0 50 50" fill="none" xmlns="http://www.w3.org/2000/svg">
<circle cx="25" cy="25" r="25" fill="#E45D22"/>
<path d="M13.7857 37.5714C13.7857 39.5357 15.3929 41.1429 17.3571 41.1429H31.6429C33.6071 41.1429 35.2143 39.5357 35.2143 37.5714V16.1429H13.7857V37.5714ZM18.1875 24.8571L20.7143 22.3304L24.5 26.1161L28.2857 22.3304L30.8125 24.8571L27.0268 28.6429L30.8125 32.4286L28.2857 34.9554L24.5 31.1696L20.7143 34.9554L18.1875 32.4286L21.9732 28.6429L18.1875 24.8571ZM30.75 10.7857L28.9643 9H20.0357L18.25 10.7857H12V14.3571H37V10.7857H30.75Z" fill="white"/>
</svg>
