<svg width="24" height="24" viewBox="0 0 24 24" fill="none" xmlns="http://www.w3.org/2000/svg">
<path d="M20.9432 10.9634C20.9049 10.8719 20.8502 10.7886 20.7804 10.7189L18.531 8.46962C18.2378 8.17712 17.7637 8.17712 17.4705 8.46962C17.1772 8.76286 17.1772 9.23761 17.4705 9.5301L18.4403 10.4999H14.2505C13.8358 10.4999 13.5005 10.8358 13.5005 11.2498C13.5005 11.6638 13.8358 11.9998 14.2505 11.9998H18.4402L17.4704 12.9696C17.1772 13.2628 17.1772 13.7376 17.4704 14.0301C17.6167 14.177 17.8087 14.2498 18.0007 14.2498C18.1928 14.2498 18.3848 14.1771 18.531 14.0301L20.7804 11.7808C20.8502 11.7118 20.9049 11.6285 20.9432 11.5363C21.0189 11.3534 21.0189 11.1464 20.9432 10.9634Z" fill="white"/>
<path d="M15.7507 13.5C15.3359 13.5 15.0007 13.836 15.0007 14.25V18H12.0005V5.99998C12.0005 5.66923 11.783 5.37673 11.4657 5.2815L8.8608 4.50001H15.0007V8.25001C15.0007 8.66401 15.3359 9 15.7507 9C16.1654 9 16.5007 8.66401 16.5007 8.25001V3.75002C16.5007 3.33599 16.1654 3 15.7507 3H3.75003C3.72303 3 3.69902 3.01125 3.67279 3.01424C3.63752 3.018 3.60528 3.02398 3.57153 3.03224C3.49278 3.05249 3.42151 3.08325 3.35478 3.12523C3.33829 3.13574 3.31804 3.13648 3.30229 3.14846C3.29624 3.153 3.29399 3.16126 3.28798 3.16576C3.20624 3.23024 3.138 3.30899 3.08849 3.40275C3.07798 3.423 3.07573 3.44476 3.0675 3.46575C3.04349 3.52274 3.01726 3.57825 3.00826 3.64125C3.0045 3.66375 3.01125 3.68474 3.01051 3.7065C3.00977 3.72151 3 3.73501 3 3.74999V18.75C3 19.1077 3.25275 19.4152 3.60303 19.485L11.1034 20.985C11.1522 20.9955 11.2017 21 11.2504 21C11.4222 21 11.5909 20.9408 11.726 20.8297C11.8992 20.6873 12.0005 20.475 12.0005 20.25V19.5H15.7507C16.1654 19.5 16.5007 19.164 16.5007 18.75V14.25C16.5007 13.836 16.1654 13.5 15.7507 13.5Z" fill="white"/>
</svg>
