<svg width="700" height="149" viewBox="0 0 700 149" fill="none" xmlns="http://www.w3.org/2000/svg">
<path d="M127.2 45C127.2 53.5 124.2 60.85 118.2 67.05C112.2 73.15 103.45 77.55 91.95 80.25C98.15 81.95 102.85 84.75 106.05 88.65C109.25 92.45 110.85 96.85 110.85 101.85C110.85 109.75 108.35 116.6 103.35 122.4C98.45 128.2 91.25 132.7 81.75 135.9C72.25 139 60.8 140.55 47.4 140.55C42.4 140.55 38.4 140.4 35.4 140.1C35.3 142.9 34.1 145 31.8 146.4C29.5 147.8 26.55 148.5 22.95 148.5C19.35 148.5 16.85 147.7 15.45 146.1C14.15 144.5 13.6 142.15 13.8 139.05C14.7 125.05 16.45 110.4 19.05 95.1C21.65 79.7 24.95 64.85 28.95 50.55C29.65 48.05 31.05 46.3 33.15 45.3C35.25 44.3 38 43.8 41.4 43.8C47.5 43.8 50.55 45.5 50.55 48.9C50.55 50.3 50.25 51.9 49.65 53.7C47.05 61.5 44.45 72.1 41.85 85.5C39.25 98.8 37.4 111.5 36.3 123.6C41.1 124 45 124.2 48 124.2C62 124.2 72.25 122.2 78.75 118.2C85.35 114.1 88.65 108.9 88.65 102.6C88.65 98.2 86.75 94.5 82.95 91.5C79.25 88.5 73 86.85 64.2 86.55C62.2 86.45 60.8 85.95 60 85.05C59.2 84.15 58.8 82.7 58.8 80.7C58.8 77.8 59.4 75.45 60.6 73.65C61.8 71.85 64 70.9 67.2 70.8C74.3 70.6 80.7 69.55 86.4 67.65C92.2 65.75 96.75 63.1 100.05 59.7C103.35 56.2 105 52.15 105 47.55C105 41.75 102.15 37.2 96.45 33.9C90.75 30.5 82 28.8 70.2 28.8C59.5 28.8 49.15 30.2 39.15 33C29.15 35.7 20.65 39.15 13.65 43.35C10.45 45.25 7.75 46.2 5.55 46.2C3.75 46.2 2.35 45.6 1.35 44.4C0.45 43.1 2.12342e-07 41.5 2.12342e-07 39.6C2.12342e-07 37.1 0.5 34.95 1.5 33.15C2.6 31.35 5.15 29.3 9.15 27C17.55 22.2 27.4 18.45 38.7 15.75C50 13.05 61.55 11.7 73.35 11.7C91.45 11.7 104.95 14.75 113.85 20.85C122.75 26.95 127.2 35 127.2 45ZM140.716 141.75C134.516 141.75 129.566 139.5 125.866 135C122.166 130.5 120.316 124.6 120.316 117.3C120.316 109.3 122.166 101.75 125.866 94.65C129.566 87.45 134.466 81.7 140.566 77.4C146.766 73 153.316 70.8 160.216 70.8C162.416 70.8 163.866 71.25 164.566 72.15C165.366 72.95 166.016 74.45 166.516 76.65C168.616 76.25 170.816 76.05 173.116 76.05C178.016 76.05 180.466 77.8 180.466 81.3C180.466 83.4 179.716 88.4 178.216 96.3C175.916 107.8 174.766 115.8 174.766 120.3C174.766 121.8 175.116 123 175.816 123.9C176.616 124.8 177.616 125.25 178.816 125.25C180.716 125.25 183.016 124.05 185.716 121.65C188.416 119.15 192.066 115.15 196.666 109.65C197.866 108.25 199.216 107.55 200.716 107.55C202.016 107.55 203.016 108.15 203.716 109.35C204.516 110.55 204.916 112.2 204.916 114.3C204.916 118.3 203.966 121.4 202.066 123.6C197.966 128.7 193.616 133 189.016 136.5C184.416 140 179.966 141.75 175.666 141.75C172.366 141.75 169.316 140.65 166.516 138.45C163.816 136.15 161.766 133.05 160.366 129.15C155.166 137.55 148.616 141.75 140.716 141.75ZM146.116 126.6C148.316 126.6 150.416 125.3 152.416 122.7C154.416 120.1 155.866 116.65 156.766 112.35L162.316 84.75C158.116 84.85 154.216 86.45 150.616 89.55C147.116 92.55 144.316 96.55 142.216 101.55C140.116 106.55 139.066 111.85 139.066 117.45C139.066 120.55 139.666 122.85 140.866 124.35C142.166 125.85 143.916 126.6 146.116 126.6ZM221.375 141.75C211.575 141.75 203.925 139 198.425 133.5C193.025 127.9 190.325 120.55 190.325 111.45C190.325 103.35 191.925 96.25 195.125 90.15C198.325 84.05 202.475 79.35 207.575 76.05C212.675 72.75 218.025 71.1 223.625 71.1C229.125 71.1 233.375 72.75 236.375 76.05C239.475 79.25 241.025 83.4 241.025 88.5C241.025 92.7 240.075 96.25 238.175 99.15C236.375 102.05 233.975 103.5 230.975 103.5C229.075 103.5 227.525 103.05 226.325 102.15C225.225 101.25 224.675 100 224.675 98.4C224.675 97.7 224.775 96.9 224.975 96C225.175 95.1 225.325 94.45 225.425 94.05C225.925 92.55 226.175 91.15 226.175 89.85C226.175 88.55 225.825 87.55 225.125 86.85C224.525 86.15 223.625 85.8 222.425 85.8C220.125 85.8 217.975 86.85 215.975 88.95C213.975 90.95 212.375 93.7 211.175 97.2C209.975 100.7 209.375 104.55 209.375 108.75C209.375 120.35 214.425 126.15 224.525 126.15C228.625 126.15 233.025 124.8 237.725 122.1C242.525 119.3 247.225 115.15 251.825 109.65C253.025 108.25 254.375 107.55 255.875 107.55C257.175 107.55 258.175 108.15 258.875 109.35C259.675 110.55 260.075 112.2 260.075 114.3C260.075 118.1 259.125 121.2 257.225 123.6C252.525 129.4 246.875 133.9 240.275 137.1C233.775 140.2 227.475 141.75 221.375 141.75ZM334.65 107.55C335.95 107.55 336.95 108.15 337.65 109.35C338.45 110.55 338.85 112.2 338.85 114.3C338.85 118.3 337.9 121.4 336 123.6C331.5 129.1 326.95 133.5 322.35 136.8C317.75 140.1 312.3 141.75 306 141.75C298.3 141.75 292.1 139.55 287.4 135.15C282.7 130.75 280.35 124.9 280.35 117.6C280.35 113.7 282.35 110.9 286.35 109.2C290.75 107.3 293.9 105.3 295.8 103.2C297.7 101 298.65 98.35 298.65 95.25C298.65 93.45 298.25 92.1 297.45 91.2C296.75 90.3 295.85 89.85 294.75 89.85C292.05 89.85 289.05 91.8 285.75 95.7C282.55 99.6 279.55 104.65 276.75 110.85C273.95 116.95 271.75 123.25 270.15 129.75C269.05 134.45 267.75 137.65 266.25 139.35C264.85 140.95 262.6 141.75 259.5 141.75C256.4 141.75 254.1 140.65 252.6 138.45C251.2 136.15 250.25 132.65 249.75 127.95C249.25 123.25 249 116.35 249 107.25C249 91.85 250.55 75.8 253.65 59.1C256.85 42.4 261.5 28.4 267.6 17.1C273.8 5.69999 281.2 -8.58307e-06 289.8 -8.58307e-06C294.4 -8.58307e-06 298.1 1.99999 300.9 5.99999C303.8 9.89999 305.25 15 305.25 21.3C305.25 31.4 302.3 41.9 296.4 52.8C290.5 63.6 280.9 76.25 267.6 90.75C267.3 95.95 267.15 101.3 267.15 106.8C271.95 94.3 277.45 85.25 283.65 79.65C289.85 73.95 295.65 71.1 301.05 71.1C306.05 71.1 310.05 72.8 313.05 76.2C316.15 79.6 317.7 83.8 317.7 88.8C317.7 94.3 316.3 99.35 313.5 103.95C310.7 108.55 305.9 112.65 299.1 116.25C299.5 118.95 300.7 121.15 302.7 122.85C304.8 124.45 307.3 125.25 310.2 125.25C313.3 125.25 316.3 124.05 319.2 121.65C322.1 119.25 325.9 115.25 330.6 109.65C331.8 108.25 333.15 107.55 334.65 107.55ZM286.65 14.85C284.85 14.85 282.85 17.45 280.65 22.65C278.45 27.75 276.3 34.7 274.2 43.5C272.2 52.2 270.55 61.7 269.25 72C275.45 64.7 280.55 56.75 284.55 48.15C288.65 39.55 290.7 31.75 290.7 24.75C290.7 21.55 290.35 19.1 289.65 17.4C288.95 15.7 287.95 14.85 286.65 14.85ZM354.359 141.75C350.659 141.75 348.009 140.95 346.409 139.35C344.809 137.65 344.009 134.5 344.009 129.9C344.009 126.8 344.309 123.05 344.909 118.65C345.509 114.25 346.559 107.6 348.059 98.7C348.259 97.5 349.059 92.65 350.459 84.15C351.859 75.55 353.109 66.55 354.209 57.15C355.209 49.15 355.709 43.15 355.709 39.15C355.709 34.65 354.059 32.4 350.759 32.4C348.259 32.4 345.109 33.75 341.309 36.45C337.609 39.05 333.609 43.25 329.309 49.05C327.909 50.95 326.359 51.9 324.659 51.9C323.259 51.9 322.009 51.25 320.909 49.95C319.909 48.55 319.409 47 319.409 45.3C319.409 43.6 319.709 42 320.309 40.5C320.909 38.9 322.009 37 323.609 34.8C328.509 28.1 333.959 22.95 339.959 19.35C345.959 15.65 352.259 13.8 358.859 13.8C364.359 13.8 368.459 15.5 371.159 18.9C373.959 22.3 375.359 27.25 375.359 33.75C375.359 39.55 374.559 47.95 372.959 58.95C377.959 44.15 384.309 32.95 392.009 25.35C399.709 17.65 408.759 13.8 419.159 13.8C427.359 13.8 433.509 16.15 437.609 20.85C441.809 25.45 443.909 31.65 443.909 39.45C443.909 43.85 443.259 49.2 441.959 55.5L432.809 98.4C431.809 103.4 431.309 107.7 431.309 111.3C431.309 115.5 432.259 118.65 434.159 120.75C436.159 122.85 438.909 123.9 442.409 123.9C445.709 123.9 448.909 122.8 452.009 120.6C455.209 118.4 458.959 114.75 463.259 109.65C464.459 108.25 465.809 107.55 467.309 107.55C468.609 107.55 469.609 108.15 470.309 109.35C471.109 110.55 471.509 112.2 471.509 114.3C471.509 118.2 470.559 121.3 468.659 123.6C463.459 129.9 458.309 134.5 453.209 137.4C448.109 140.3 442.759 141.75 437.159 141.75C428.659 141.75 422.009 139.25 417.209 134.25C412.409 129.15 410.009 122.35 410.009 113.85C410.009 110.55 410.259 106.95 410.759 103.05C411.359 99.15 412.309 94.2 413.609 88.2L419.609 60.75C419.809 59.85 420.159 58.25 420.659 55.95C421.159 53.65 421.559 51.5 421.859 49.5C422.159 47.4 422.309 45.35 422.309 43.35C422.309 40.15 421.409 37.6 419.609 35.7C417.809 33.8 415.259 32.85 411.959 32.85C405.959 32.85 399.959 36.05 393.959 42.45C387.959 48.85 382.409 59.2 377.309 73.5C372.209 87.7 368.209 105.9 365.309 128.1C364.609 133.2 363.559 136.75 362.159 138.75C360.859 140.75 358.259 141.75 354.359 141.75ZM535.827 94.95C537.127 94.95 538.127 95.6 538.827 96.9C539.527 98.2 539.877 99.85 539.877 101.85C539.877 106.65 538.427 109.5 535.527 110.4C529.527 112.5 522.927 113.7 515.727 114C513.827 122.4 510.077 129.15 504.477 134.25C498.877 139.25 492.527 141.75 485.427 141.75C479.427 141.75 474.277 140.3 469.977 137.4C465.777 134.5 462.577 130.65 460.377 125.85C458.177 121.05 457.077 115.85 457.077 110.25C457.077 102.65 458.527 95.9 461.427 90C464.327 84 468.327 79.35 473.427 76.05C478.527 72.65 484.177 70.95 490.377 70.95C497.977 70.95 504.077 73.6 508.677 78.9C513.377 84.1 516.127 90.55 516.927 98.25C521.627 97.95 527.227 96.95 533.727 95.25C534.527 95.05 535.227 94.95 535.827 94.95ZM486.627 125.85C489.827 125.85 492.577 124.55 494.877 121.95C497.277 119.35 498.877 115.6 499.677 110.7C496.577 108.6 494.177 105.85 492.477 102.45C490.877 99.05 490.077 95.45 490.077 91.65C490.077 90.05 490.227 88.45 490.527 86.85H489.777C485.777 86.85 482.427 88.8 479.727 92.7C477.127 96.5 475.827 101.9 475.827 108.9C475.827 114.4 476.877 118.6 478.977 121.5C481.177 124.4 483.727 125.85 486.627 125.85ZM597.711 107.55C599.011 107.55 600.011 108.15 600.711 109.35C601.511 110.55 601.911 112.2 601.911 114.3C601.911 118.3 600.961 121.4 599.061 123.6C594.761 128.9 590.061 133.25 584.961 136.65C579.861 140.05 574.011 141.75 567.411 141.75C547.011 141.75 536.811 127.4 536.811 98.7C536.811 94.3 536.961 89.85 537.261 85.35H531.411C528.411 85.35 526.361 84.8 525.261 83.7C524.261 82.6 523.761 80.85 523.761 78.45C523.761 72.85 526.011 70.05 530.511 70.05H539.061C540.761 59.05 543.361 49 546.861 39.9C550.361 30.8 554.561 23.55 559.461 18.15C564.461 12.75 569.811 10.05 575.511 10.05C579.711 10.05 583.011 11.9 585.411 15.6C587.811 19.3 589.011 23.95 589.011 29.55C589.011 45.05 582.511 58.55 569.511 70.05H586.311C587.911 70.05 589.061 70.4 589.761 71.1C590.461 71.8 590.811 73.1 590.811 75C590.811 81.9 585.161 85.35 573.861 85.35H555.561C555.361 90.35 555.261 94.25 555.261 97.05C555.261 107.45 556.461 114.75 558.861 118.95C561.361 123.15 565.261 125.25 570.561 125.25C574.861 125.25 578.661 123.95 581.961 121.35C585.261 118.75 589.161 114.85 593.661 109.65C594.861 108.25 596.211 107.55 597.711 107.55ZM571.461 24.45C569.961 24.45 568.261 26.35 566.361 30.15C564.561 33.85 562.811 39.05 561.111 45.75C559.511 52.35 558.161 59.7 557.061 67.8C562.961 62.7 567.361 57 570.261 50.7C573.261 44.3 574.761 38.5 574.761 33.3C574.761 27.4 573.661 24.45 571.461 24.45ZM656.598 107.55C657.898 107.55 658.898 108.15 659.598 109.35C660.398 110.55 660.798 112.2 660.798 114.3C660.798 118.3 659.848 121.4 657.948 123.6C654.248 128.1 648.998 132.25 642.198 136.05C635.498 139.85 628.298 141.75 620.598 141.75C610.098 141.75 601.948 138.9 596.148 133.2C590.348 127.5 587.448 119.7 587.448 109.8C587.448 102.9 588.898 96.5 591.798 90.6C594.698 84.6 598.698 79.85 603.798 76.35C608.998 72.85 614.848 71.1 621.348 71.1C627.148 71.1 631.798 72.85 635.298 76.35C638.798 79.75 640.548 84.4 640.548 90.3C640.548 97.2 638.048 103.15 633.048 108.15C628.148 113.05 619.798 116.95 607.998 119.85C610.498 124.45 615.248 126.75 622.248 126.75C626.748 126.75 631.848 125.2 637.548 122.1C643.348 118.9 648.348 114.75 652.548 109.65C653.748 108.25 655.098 107.55 656.598 107.55ZM618.798 85.8C615.098 85.8 611.948 87.95 609.348 92.25C606.848 96.55 605.598 101.75 605.598 107.85V108.15C611.498 106.75 616.148 104.65 619.548 101.85C622.948 99.05 624.648 95.8 624.648 92.1C624.648 90.2 624.098 88.7 622.998 87.6C621.998 86.4 620.598 85.8 618.798 85.8ZM676.485 145.05C671.285 145.05 667.285 143.85 664.485 141.45C661.785 139.05 660.435 136.35 660.435 133.35C660.435 130.75 661.385 128.5 663.285 126.6C665.185 124.7 667.985 123.75 671.685 123.75C672.985 123.75 674.485 123.9 676.185 124.2C677.985 124.4 679.335 124.55 680.235 124.65C680.135 122.05 679.535 119.6 678.435 117.3C677.435 115 676.135 112.8 674.535 110.7C672.935 108.5 671.435 106.6 670.035 105C666.935 110.9 663.835 115.8 660.735 119.7C657.735 123.6 654.435 127.3 650.835 130.8C649.035 132.6 647.135 133.5 645.135 133.5C643.535 133.5 642.235 132.95 641.235 131.85C640.235 130.65 639.735 129.2 639.735 127.5C639.735 125.5 640.435 123.65 641.835 121.95L643.785 119.55C649.285 112.75 653.435 107.15 656.235 102.75C658.035 99.85 659.835 96.4 661.635 92.4C663.535 88.4 665.985 82.95 668.985 76.05C670.885 71.65 674.835 69.45 680.835 69.45C683.635 69.45 685.585 69.7 686.685 70.2C687.785 70.7 688.335 71.5 688.335 72.6C688.335 73.2 688.135 74.15 687.735 75.45C687.335 76.75 686.785 78.05 686.085 79.35C684.285 82.95 683.385 86 683.385 88.5C683.385 90 683.885 91.65 684.885 93.45C685.985 95.25 687.635 97.5 689.835 100.2C693.035 104.4 695.435 108 697.035 111C698.735 113.9 699.585 117.1 699.585 120.6C699.585 124.8 698.585 128.8 696.585 132.6C694.685 136.3 691.985 139.3 688.485 141.6C684.985 143.9 680.985 145.05 676.485 145.05Z" fill="white"/>
</svg>
